<?xml version="1.0" encoding="UTF-8"?>
<svg id="Layer_1" data-name="Layer 1" xmlns="http://www.w3.org/2000/svg" viewBox="0 0 1000 1000">
  <defs>
    <style>
      .cls-1 {
        fill: #fff;
      }
    </style>
  </defs>
  <path class="cls-1" d="M734.78,639.22c-9.87,20.62-20.34,41.1-36.09,57.92-19.32,20.64-46.95,36.57-75.73,38.35-51.8,3.2-106.86-2.47-159,0-31.02-4.29-21.33-42.61,1.94-51.72,10.18-3.98,41.84-3.37,53.82-2.62,11.85.74,21.65,5.22,28.16,15.3,18.81.68,37.85.29,56.74.31,8.35.01,14.08.69,22.75-.97,52.79-10.06,85.96-89.93,92.92-137.21,22.25-151.14-110.26-279.66-260.85-252.44-142.25,25.71-223.37,180-162.8,312.17,3.27,7.14,12.04,20.39,12.74,27.31,1.55,15.43-18.1,26.56-30.83,17.23-7.38-5.41-9.8-16.63-15.05-23.64-40.38,3.62-74.45-26.71-77.02-66.92-1.93-30.26,1.53-62.54,0-93.02,2.48-40.06,36.73-71.68,77.4-66.85,29.29-62.2,84.19-111,149.15-133.65,108.47-37.82,229.45-.55,297.06,91.41,9.7,13.19,17.92,27.36,25.26,41.99,38.22-4.58,73.4,25.13,76.79,63.03-1.14,31.56,1.24,63.4.4,94.91-.65,24.21-13.1,46.51-33.76,59.1-13.64,8.31-28.09,10.83-43.99,10Z"/>
  <path class="cls-1" d="M650.21,593.41c-8.23,8.49-19.61,13.69-31.32,15.19h-238.47c-24.58-2.56-43.93-22.55-45.82-47.19-2.8-36.53,2.1-76.46-.04-113.34,1.78-26.67,22.77-46.84,49.28-48.48l231.65-.03c24.51,1.64,43.84,18.57,48.35,42.63-.3,38,3.37,79.38.86,117.2-.83,12.52-5.73,24.99-14.5,34.04ZM403.04,471.69c-45.09,4.96-32.71,77.31,13.74,63.94,37.22-10.71,26.74-68.39-13.74-63.94ZM587.8,471.69c-43.84,4.94-33.7,74.67,11.59,64.51,39.5-8.86,29.83-69.18-11.59-64.51Z"/>
</svg>